<?xml version="1.0" encoding="utf-8"?>
<!-- Generator: Adobe Illustrator 21.0.2, SVG Export Plug-In . SVG Version: 6.00 Build 0)  -->
<svg version="1.1" id="Layer_1" xmlns="http://www.w3.org/2000/svg" xmlns:xlink="http://www.w3.org/1999/xlink" x="0px" y="0px"
	 width="200px" height="200px" viewBox="0 0 200 200" enable-background="new 0 0 200 200" xml:space="preserve">
<g>
	<path fill="#FF7546" d="M137,5.6C78.3-3.9,22.9,36,13.4,94.8c-6.3,38.6,8.8,75.7,36.5,99.3l136.3-167C172.4,16.2,155.7,8.6,137,5.6
		z"/>
	<path fill="#231F20" d="M50,194.8l-0.4-0.3c-29.1-24.8-42.8-62.1-36.7-99.8C17.5,66.1,33,41.1,56.4,24.2
		C79.9,7.2,108.6,0.5,137.1,5.1c18,2.9,35.1,10.4,49.5,21.6l0.4,0.3l-0.3,0.4L50,194.8z M119.6,4.7c-22.3,0-44.1,7-62.5,20.3
		C33.8,41.7,18.5,66.5,13.9,94.8c-6,37.2,7.4,74,36,98.6L185.5,27.2c-14.1-11-30.9-18.3-48.6-21.1C131.1,5.1,125.3,4.7,119.6,4.7z"
		/>
</g>
<g>
	
		<ellipse transform="matrix(0.1599 -0.9871 0.9871 0.1599 -10.8117 191.3748)" fill="#FFDD30" cx="107" cy="102" rx="43.6" ry="43.6"/>
	<path fill="#231F20" d="M107.1,146.1c-2.4,0-4.8-0.2-7.1-0.6c-11.6-1.9-21.8-8.2-28.7-17.7c-6.9-9.5-9.6-21.2-7.8-32.8
		c3.9-24,26.6-40.3,50.5-36.4c24,3.9,40.3,26.6,36.4,50.5l0,0c-1.9,11.6-8.2,21.8-17.7,28.7C125.2,143.2,116.3,146.1,107.1,146.1z
		 M107,59C86.3,59,67.9,74,64.5,95.2c-1.8,11.4,0.9,22.7,7.6,32.1c6.7,9.3,16.7,15.5,28,17.3c11.4,1.8,22.7-0.9,32.1-7.6
		c9.3-6.7,15.5-16.7,17.3-28c3.8-23.4-12.2-45.6-35.6-49.4C111.6,59.2,109.3,59,107,59z"/>
</g>
</svg>
