<svg id="Layer_1" data-name="Layer 1" xmlns="http://www.w3.org/2000/svg" viewBox="0 0 200 200"><title>06</title><path d="M137.4,6A107.815,107.815,0,0,0,50.3,194.5l136.3-167A106.131,106.131,0,0,0,137.4,6Z" fill="#ff7546"/><path d="M50.4,195.2l-.4-.3A108.309,108.309,0,0,1,137.5,5.5,109.164,109.164,0,0,1,187,27.1l.4.3-.3.4ZM120,5.1A107.3,107.3,0,0,0,50.3,193.8L185.9,27.6A106.167,106.167,0,0,0,137.3,6.5,101.746,101.746,0,0,0,120,5.1Z" fill="#231f20"/><circle cx="107.323" cy="102.403" r="43.599" transform="translate(-10.924 191.97) rotate(-80.799)" fill="#ffdd30"/><path d="M107.5,146.5a41.654,41.654,0,0,1-7.1-.6,44.01,44.01,0,1,1,50.4-36.4h0a43.963,43.963,0,0,1-43.3,37Zm-.1-87.1a43.31,43.31,0,1,0,6.9.6A40.2,40.2,0,0,0,107.4,59.4Z" fill="#231f20"/></svg>