<?xml version="1.0" encoding="utf-8"?>
<!-- Generator: Adobe Illustrator 21.0.2, SVG Export Plug-In . SVG Version: 6.00 Build 0)  -->
<svg version="1.1" id="Layer_1" xmlns="http://www.w3.org/2000/svg" xmlns:xlink="http://www.w3.org/1999/xlink" x="0px" y="0px"
	 width="200px" height="200px" viewBox="0 0 200 200" style="enable-background:new 0 0 200 200;" xml:space="preserve">
<style type="text/css">
	.st0{fill:#FF7546;}
	.st1{fill:#231F20;}
	.st2{fill:#FFDD30;}
</style>
<g>
	<path class="st0" d="M137.4,6C78.7-3.5,23.3,36.4,13.8,95.2c-6.3,38.6,8.8,75.7,36.5,99.3l136.3-167C172.8,16.6,156.1,9,137.4,6z"
		/>
	<path class="st1" d="M50.4,195.2l-0.4-0.3c-29.1-24.8-42.8-62.1-36.7-99.8c4.6-28.6,20.1-53.6,43.5-70.5
		C80.3,7.6,109,0.9,137.5,5.5c18,2.9,35.1,10.4,49.5,21.6l0.4,0.3l-0.3,0.4L50.4,195.2z M120,5.1c-22.3,0-44.1,7-62.5,20.3
		C34.2,42.1,18.9,66.9,14.3,95.2c-6,37.2,7.4,74,36,98.6L185.9,27.6c-14.1-11-30.9-18.3-48.6-21.1C131.5,5.5,125.7,5.1,120,5.1z"/>
</g>
<g>
	
		<ellipse transform="matrix(0.1599 -0.9871 0.9871 0.1599 -10.924 191.9699)" class="st2" cx="107.3" cy="102.4" rx="43.6" ry="43.6"/>
	<path class="st1" d="M107.5,146.5c-2.4,0-4.8-0.2-7.1-0.6c-11.6-1.9-21.8-8.2-28.7-17.7c-6.9-9.5-9.6-21.2-7.8-32.8
		c3.9-24,26.6-40.3,50.5-36.4c24,3.9,40.3,26.6,36.4,50.5l0,0c-1.9,11.6-8.2,21.8-17.7,28.7C125.6,143.6,116.7,146.5,107.5,146.5z
		 M107.4,59.4c-20.7,0-39.1,15-42.5,36.2c-1.8,11.4,0.9,22.7,7.6,32.1c6.7,9.3,16.7,15.5,28,17.3c11.4,1.8,22.7-0.9,32.1-7.6
		c9.3-6.7,15.5-16.7,17.3-28c3.8-23.4-12.2-45.6-35.6-49.4C112,59.6,109.7,59.4,107.4,59.4z"/>
</g>
</svg>
